# xmcd CD database file generated by freedbAccess_ocx
#
# Track frame offsets:
#       150
#       16407
#       30144
#       47545
#       63037
#       79645
#       94145
#       108582
#       120875
#       130860
#       153617
#       162307
#       175390
#       191677
#       209884
#       228347
#       249662
#       267775
#       283287
#       299122
#       310337
#
# Disc length: 4254 seconds
#
# Revision: 0
# Processed by: cddbd v1.4PL0 Copyright (c) Steve Scherf et al.
# Submitted via: CDnGo 2.00
#
DISCID=2c109c15
DTITLE=Waldemar Matuska - Suvenyr
DYEAR=2001
DGENRE=Country
TTITLE0=Jo, tresne zraly
TTITLE1=Tisíc mil
TTITLE2=Ruze z texasu
TTITLE3=Pojd se mnou, lasko ma
TTITLE4=Slavici z Madridu
TTITLE5=Sbohem lasko
TTITLE6=Jezebel
TTITLE7=Pisen pro Kristynku
TTITLE8=Holky ja mam vsechny rad
TTITLE9=Rano
TTITLE10=Tuhle rundu platim ja
TTITLE11=Jen se priznej, ze ti schazim
TTITLE12=Kdyz vecer vklouzne do hlavnich trid
TTITLE13=Boty toulavy
TTITLE14=Eldorado
TTITLE15=Stare zname podloubi
TTITLE16=Kdyz se mi trikrat zdalo
TTITLE17=Nas dum stal na konci predmesti
TTITLE18=Mozna, ze mi mavas
TTITLE19=Kvete mak a slunce pali
TTITLE20=Suvenyr
EXTD=
EXTT0=
EXTT1=
EXTT2=
EXTT3=
EXTT4=
EXTT5=
EXTT6=
EXTT7=
EXTT8=
EXTT9=
EXTT10=
EXTT11=
EXTT12=
EXTT13=
EXTT14=
EXTT15=
EXTT16=
EXTT17=
EXTT18=
EXTT19=
EXTT20=
PLAYORDER=
